<!-- Generated by IcoMoon.io -->
<svg version="1.1" xmlns="http://www.w3.org/2000/svg" width="1024" height="1024" viewBox="0 0 1024 1024">
<g id="icomoon-ignore">
</g>
<path fill="#fceaea" d="M0 0h1024v1024h-1024v-1024z"></path>
<path fill="#080c0c" d="M822.979 721.443c17.222 8.928 31.734 6.058 43.536-8.605 11.802-14.666 13.235-29.968 4.304-45.907l-67.936-128.154-51.67 140.586 71.766 42.080zM620.125 681.277h67.44l92.355-231.44c3.827-8.925 5.261-17.693 4.304-26.301s-6.218-15.142-15.786-19.606l-79.421-34.429c-8.931-4.461-17.862-4.461-26.79 0-8.931 4.464-13.715 11.158-14.355 20.083l-27.747 291.693zM336.666 681.277h66.253l-26.794-291.693c-0.637-9.562-4.944-16.576-12.918-21.040-7.971-4.461-17.382-4.144-28.227 0.957l-75.591 32.518c-8.293 3.187-12.917 10.358-13.875 21.517s0.16 21.2 3.349 30.125l87.803 227.616zM201.020 721.443l71.764-42.080-51.67-140.586-67.937 132.934c-8.931 17.853-7.017 32.358 5.741 43.517 12.758 11.155 26.792 13.229 42.102 6.214zM460.33 681.277h102.384l31.574-348.118c1.277-8.925-1.117-16.416-7.174-22.473-6.061-6.057-13.555-9.085-22.486-9.085h-105.254c-10.208 0-17.862 3.028-22.966 9.085s-7.334 13.548-6.698 22.473l30.621 348.118zM179.969 785.043c-26.403 0-48.714-9.421-66.932-28.262-18.212-18.845-27.318-41.462-27.318-67.853 0-8.109 1.435-16.022 4.306-23.738 2.87-7.709 6.054-15.299 9.549-22.771l87.342-169.133c-9.569-25.93-10.181-51.59-1.837-76.976 8.337-25.382 24.524-43.328 48.56-53.837l79.419-32.515c10.205-3.825 20.573-6.095 31.098-6.809s20.33 1.722 29.414 7.307c4.49-20.862 14.698-37.993 30.618-51.395 15.917-13.402 34.31-20.103 55.184-20.103h105.254c20.87 0 39.264 6.223 55.181 18.668 15.923 12.445 26.128 28.78 30.621 49.004 9.568-3.672 19.494-5.152 29.776-4.437 10.285 0.714 20.208 3.303 29.779 7.765l80.374 32.515c24.522 9.386 41.149 26.573 49.882 51.558 8.739 24.995 7.84 49.498-2.698 73.517l86.88 173.914c2.707 7.322 5.693 14.557 8.957 21.712 3.267 7.146 4.899 14.454 4.899 21.93 0 28.147-10.061 51.843-30.189 71.085-20.131 19.235-44.355 28.854-72.672 28.854-7.325 0-14.246-1.472-20.765-4.419-6.512-2.944-13.11-5.77-19.798-8.474l-57.45-28.23h-451.77l-54.35 28.23c-8.114 3.341-16.385 6.326-24.811 8.95-8.433 2.627-17.268 3.942-26.505 3.942z"></path>
</svg>
