<svg aria-hidden="true" style="position: absolute; width: 0; height: 0; overflow: hidden;" version="1.1"
    xmlns="http://www.w3.org/2000/svg" xmlns:xlink="http://www.w3.org/1999/xlink">
    <defs>
        <symbol id="icon-logo" viewBox="0 0 75 32">
            <path
                d="M20.924 21.942c0.478 0.248 0.882 0.168 1.209-0.239s0.368-0.832 0.12-1.275l-1.887-3.56-1.435 3.905 1.993 1.169zM15.289 20.826h1.873l2.565-6.429c0.106-0.248 0.146-0.491 0.12-0.731s-0.173-0.421-0.439-0.545l-2.206-0.956c-0.248-0.124-0.496-0.124-0.744 0s-0.381 0.31-0.399 0.558l-0.771 8.103zM7.415 20.826h1.84l-0.744-8.103c-0.018-0.266-0.137-0.46-0.359-0.584s-0.483-0.115-0.784 0.027l-2.1 0.903c-0.23 0.089-0.359 0.288-0.385 0.598s0.004 0.589 0.093 0.837l2.439 6.323zM3.647 21.942l1.993-1.169-1.435-3.905-1.887 3.693c-0.248 0.496-0.195 0.899 0.159 1.209s0.744 0.368 1.169 0.173zM10.85 20.826h2.844l0.877-9.67c0.035-0.248-0.031-0.456-0.199-0.624s-0.377-0.252-0.625-0.252h-2.924c-0.284 0-0.496 0.084-0.638 0.252s-0.204 0.376-0.186 0.624l0.851 9.67zM3.063 23.708c-0.733 0-1.353-0.262-1.859-0.785s-0.759-1.152-0.759-1.885c0-0.225 0.040-0.445 0.12-0.659s0.168-0.425 0.265-0.633l2.426-4.698c-0.266-0.72-0.283-1.433-0.051-2.138s0.681-1.204 1.349-1.495l2.206-0.903c0.284-0.106 0.571-0.169 0.864-0.189s0.565 0.048 0.817 0.203c0.125-0.579 0.408-1.055 0.851-1.428s0.953-0.558 1.533-0.558h2.924c0.58 0 1.091 0.173 1.533 0.519s0.726 0.799 0.851 1.361c0.266-0.102 0.542-0.143 0.827-0.123s0.561 0.092 0.827 0.216l2.233 0.903c0.681 0.261 1.143 0.738 1.386 1.432s0.218 1.375-0.075 2.042l2.413 4.831c0.075 0.203 0.158 0.404 0.249 0.603s0.136 0.402 0.136 0.609c0 0.782-0.279 1.44-0.839 1.975s-1.232 0.802-2.019 0.802c-0.203 0-0.396-0.041-0.577-0.123s-0.364-0.16-0.55-0.235l-1.596-0.784h-12.549l-1.51 0.784c-0.225 0.093-0.455 0.176-0.689 0.249s-0.48 0.109-0.736 0.109z">
            </path>
            <path
                d="M71.992 22.028c-0.106 0-0.195-0.035-0.265-0.106-0.071-0.076-0.106-0.169-0.106-0.281v-1.001h-1.069v-0.099c-0.268 0-0.506-0.053-0.713-0.159s-0.369-0.253-0.485-0.44c-0.116-0.187-0.174-0.404-0.174-0.652 0-0.268 0.063-0.508 0.189-0.721 0.131-0.212 0.309-0.379 0.531-0.501 0.228-0.126 0.488-0.19 0.781-0.19h1.312c0.117 0 0.21 0.035 0.281 0.106s0.107 0.164 0.107 0.281v3.383c-0.005 0.111-0.043 0.202-0.114 0.273-0.066 0.071-0.157 0.106-0.273 0.106zM69.3 21.937c-0.081-0.071-0.119-0.149-0.114-0.235s0.035-0.164 0.091-0.235l0.925-1.206h1.009l-1.297 1.616c-0.086 0.111-0.192 0.164-0.319 0.159s-0.225-0.038-0.295-0.099zM70.68 20.003h0.941v-1.403h-0.941c-0.202 0-0.379 0.066-0.531 0.197-0.152 0.126-0.227 0.291-0.227 0.493 0 0.212 0.075 0.384 0.227 0.516s0.329 0.197 0.531 0.197z">
            </path>
            <path
                d="M67.704 22.028c-0.111 0-0.205-0.035-0.281-0.106-0.071-0.076-0.107-0.169-0.107-0.281v-3.375c0-0.116 0.035-0.21 0.107-0.281 0.075-0.071 0.169-0.106 0.281-0.106 0.116 0 0.207 0.035 0.273 0.106s0.099 0.164 0.099 0.281v3.375c0 0.111-0.033 0.205-0.099 0.281-0.065 0.071-0.157 0.106-0.273 0.106zM64.586 22.028c-0.111 0-0.202-0.035-0.273-0.106-0.066-0.076-0.099-0.169-0.099-0.281v-3.375c0-0.116 0.033-0.21 0.099-0.281 0.071-0.071 0.162-0.106 0.273-0.106 0.116 0 0.21 0.035 0.281 0.106s0.106 0.164 0.106 0.281v3.375c0 0.111-0.035 0.205-0.106 0.281-0.071 0.071-0.164 0.106-0.281 0.106zM64.875 20.216v-0.683h2.662v0.683h-2.662z">
            </path>
            <path
                d="M59.345 23.803c-0.111 0-0.205-0.038-0.281-0.114-0.071-0.071-0.106-0.162-0.106-0.273v-3.459c0.005-0.399 0.099-0.758 0.281-1.077s0.43-0.569 0.743-0.751c0.313-0.187 0.667-0.281 1.062-0.281 0.399 0 0.756 0.094 1.069 0.281 0.314 0.182 0.561 0.432 0.743 0.751 0.187 0.319 0.281 0.678 0.281 1.077s-0.086 0.758-0.258 1.077c-0.167 0.314-0.397 0.564-0.69 0.751-0.293 0.182-0.624 0.273-0.994 0.273-0.298 0-0.574-0.061-0.827-0.182-0.248-0.126-0.46-0.296-0.637-0.508v2.048c0 0.111-0.035 0.202-0.106 0.273-0.071 0.076-0.164 0.114-0.281 0.114zM61.044 21.376c0.258 0 0.488-0.061 0.69-0.182 0.202-0.126 0.362-0.296 0.478-0.508 0.121-0.217 0.182-0.46 0.182-0.728 0-0.273-0.061-0.516-0.182-0.728-0.116-0.217-0.276-0.387-0.478-0.508-0.202-0.126-0.432-0.19-0.69-0.19-0.253 0-0.483 0.063-0.69 0.19-0.202 0.121-0.362 0.291-0.478 0.508-0.116 0.212-0.174 0.455-0.174 0.728 0 0.268 0.058 0.511 0.174 0.728 0.116 0.212 0.276 0.382 0.478 0.508 0.207 0.121 0.437 0.182 0.69 0.182z">
            </path>
            <path
                d="M56.274 22.059c-0.42 0-0.794-0.088-1.122-0.265-0.324-0.182-0.579-0.43-0.766-0.743-0.182-0.319-0.273-0.683-0.273-1.092 0-0.415 0.086-0.779 0.258-1.092 0.177-0.319 0.42-0.566 0.728-0.743 0.308-0.182 0.662-0.273 1.062-0.273 0.394 0 0.733 0.088 1.016 0.265 0.283 0.172 0.498 0.412 0.645 0.721 0.152 0.303 0.228 0.655 0.228 1.054 0 0.096-0.033 0.177-0.099 0.243-0.066 0.061-0.149 0.091-0.25 0.091h-3.057v-0.607h3.034l-0.311 0.212c-0.005-0.253-0.056-0.478-0.152-0.675-0.096-0.202-0.233-0.362-0.41-0.478s-0.392-0.174-0.645-0.174c-0.288 0-0.536 0.063-0.743 0.19-0.202 0.126-0.356 0.301-0.463 0.523-0.106 0.217-0.159 0.465-0.159 0.743s0.063 0.526 0.19 0.743c0.126 0.217 0.301 0.389 0.523 0.516s0.478 0.19 0.766 0.19c0.157 0 0.316-0.028 0.478-0.083 0.167-0.061 0.301-0.129 0.402-0.205 0.076-0.056 0.157-0.083 0.243-0.083 0.091-0.005 0.169 0.020 0.235 0.076 0.086 0.076 0.131 0.159 0.137 0.25s-0.035 0.169-0.121 0.235c-0.172 0.137-0.387 0.248-0.645 0.334-0.253 0.086-0.496 0.129-0.728 0.129z">
            </path>
            <path
                d="M52.728 22.036c-0.111 0-0.205-0.035-0.281-0.106-0.071-0.076-0.106-0.169-0.106-0.281v-2.169c0-0.319-0.078-0.554-0.235-0.705-0.157-0.157-0.362-0.235-0.614-0.235-0.263 0-0.48 0.091-0.652 0.273-0.167 0.182-0.25 0.415-0.25 0.698h-0.63c0-0.329 0.071-0.617 0.212-0.865 0.142-0.253 0.339-0.45 0.592-0.592 0.258-0.142 0.551-0.212 0.88-0.212 0.288 0 0.544 0.063 0.766 0.19s0.394 0.313 0.516 0.561c0.126 0.243 0.19 0.538 0.19 0.887v2.169c0 0.111-0.035 0.205-0.106 0.281-0.071 0.071-0.164 0.106-0.281 0.106zM47.669 22.036c-0.111 0-0.205-0.035-0.281-0.106-0.071-0.076-0.106-0.169-0.106-0.281v-3.375c0-0.116 0.035-0.21 0.106-0.281 0.076-0.071 0.169-0.106 0.281-0.106 0.116 0 0.21 0.035 0.281 0.106s0.106 0.164 0.106 0.281v3.375c0 0.111-0.035 0.205-0.106 0.281-0.071 0.071-0.164 0.106-0.281 0.106zM50.202 22.036c-0.111 0-0.205-0.035-0.281-0.106-0.071-0.076-0.106-0.169-0.106-0.281v-2.169c0-0.319-0.078-0.554-0.235-0.705-0.157-0.157-0.362-0.235-0.614-0.235-0.263 0-0.48 0.091-0.652 0.273s-0.258 0.415-0.258 0.698h-0.478c0-0.329 0.066-0.617 0.197-0.865 0.131-0.253 0.314-0.45 0.546-0.592s0.498-0.212 0.796-0.212c0.288 0 0.544 0.063 0.766 0.19s0.394 0.313 0.516 0.561c0.126 0.243 0.19 0.538 0.19 0.887v2.169c0 0.111-0.035 0.205-0.106 0.281-0.071 0.071-0.164 0.106-0.281 0.106z">
            </path>
            <path
                d="M44.683 22.059c-0.405 0-0.766-0.091-1.085-0.273-0.314-0.187-0.561-0.437-0.743-0.751-0.177-0.319-0.265-0.678-0.265-1.077 0-0.41 0.088-0.774 0.265-1.092s0.42-0.566 0.728-0.743c0.308-0.182 0.662-0.273 1.062-0.273 0.298 0 0.571 0.058 0.819 0.174 0.248 0.111 0.47 0.281 0.667 0.508 0.071 0.081 0.096 0.164 0.076 0.25s-0.076 0.162-0.167 0.228c-0.071 0.051-0.149 0.068-0.235 0.053-0.086-0.020-0.164-0.066-0.235-0.137-0.248-0.263-0.556-0.394-0.925-0.394-0.258 0-0.485 0.061-0.683 0.182-0.197 0.116-0.351 0.281-0.463 0.493s-0.167 0.463-0.167 0.751c0 0.273 0.056 0.516 0.167 0.728 0.116 0.212 0.276 0.382 0.478 0.508 0.202 0.121 0.437 0.182 0.705 0.182 0.177 0 0.331-0.020 0.463-0.061 0.137-0.046 0.26-0.114 0.372-0.205 0.081-0.066 0.164-0.101 0.25-0.106 0.086-0.010 0.162 0.013 0.228 0.068 0.086 0.071 0.134 0.152 0.144 0.243 0.010 0.086-0.020 0.164-0.091 0.235-0.364 0.339-0.819 0.508-1.365 0.508z">
            </path>
            <path
                d="M39.453 22.066c-0.349 0-0.662-0.073-0.94-0.22-0.273-0.152-0.49-0.372-0.652-0.66-0.157-0.288-0.235-0.642-0.235-1.062v-1.866c0-0.111 0.035-0.202 0.106-0.273 0.076-0.076 0.169-0.114 0.281-0.114s0.202 0.038 0.273 0.114c0.076 0.071 0.114 0.162 0.114 0.273v1.866c0 0.283 0.053 0.518 0.159 0.705 0.106 0.182 0.25 0.319 0.432 0.41 0.182 0.086 0.387 0.129 0.614 0.129 0.217 0 0.41-0.043 0.576-0.129 0.172-0.086 0.308-0.202 0.41-0.349s0.152-0.311 0.152-0.493h0.478c0 0.313-0.078 0.597-0.235 0.849-0.152 0.253-0.362 0.453-0.63 0.599-0.263 0.147-0.564 0.22-0.903 0.22zM41.129 22.028c-0.111 0-0.205-0.035-0.281-0.106-0.071-0.076-0.106-0.169-0.106-0.281v-3.383c0-0.116 0.035-0.21 0.106-0.281 0.076-0.071 0.169-0.106 0.281-0.106 0.116 0 0.21 0.035 0.281 0.106s0.106 0.164 0.106 0.281v3.383c0 0.111-0.035 0.205-0.106 0.281-0.071 0.071-0.164 0.106-0.281 0.106zM39.612 17.333c-0.258 0-0.49-0.043-0.698-0.129-0.207-0.091-0.372-0.212-0.493-0.364-0.121-0.157-0.182-0.331-0.182-0.523 0-0.106 0.033-0.195 0.099-0.265s0.147-0.106 0.243-0.106c0.101 0 0.182 0.035 0.243 0.106 0.066 0.071 0.099 0.159 0.099 0.265 0 0.126 0.066 0.235 0.197 0.326 0.131 0.086 0.296 0.129 0.493 0.129s0.362-0.043 0.493-0.129c0.131-0.091 0.197-0.2 0.197-0.326 0-0.106 0.033-0.195 0.099-0.265s0.147-0.106 0.243-0.106c0.101 0 0.182 0.035 0.243 0.106 0.066 0.071 0.099 0.159 0.099 0.265 0 0.192-0.061 0.367-0.182 0.523-0.121 0.152-0.286 0.273-0.493 0.364-0.202 0.086-0.435 0.129-0.698 0.129z">
            </path>
            <path
                d="M34.395 22.059c-0.369 0-0.7-0.091-0.994-0.273-0.293-0.187-0.526-0.437-0.698-0.751-0.167-0.319-0.25-0.678-0.25-1.077s0.091-0.758 0.273-1.077c0.187-0.319 0.437-0.569 0.751-0.751 0.319-0.187 0.675-0.281 1.069-0.281s0.748 0.094 1.062 0.281c0.314 0.182 0.561 0.432 0.743 0.751 0.187 0.319 0.281 0.678 0.281 1.077h-0.296c0 0.399-0.086 0.758-0.258 1.077-0.167 0.314-0.397 0.564-0.69 0.751-0.293 0.182-0.624 0.273-0.994 0.273zM34.546 21.376c0.258 0 0.488-0.061 0.69-0.182 0.202-0.126 0.362-0.296 0.478-0.508 0.116-0.217 0.174-0.46 0.174-0.728 0-0.273-0.058-0.516-0.174-0.728-0.116-0.217-0.276-0.387-0.478-0.508-0.202-0.126-0.432-0.19-0.69-0.19-0.253 0-0.483 0.063-0.69 0.19-0.202 0.121-0.364 0.291-0.485 0.508-0.116 0.212-0.174 0.455-0.174 0.728 0 0.268 0.058 0.511 0.174 0.728 0.121 0.212 0.283 0.382 0.485 0.508 0.207 0.121 0.437 0.182 0.69 0.182zM36.245 22.036c-0.111 0-0.205-0.035-0.281-0.106-0.071-0.076-0.106-0.169-0.106-0.281v-1.16l0.144-0.804 0.63 0.273v1.691c0 0.111-0.038 0.205-0.114 0.281-0.071 0.071-0.162 0.106-0.273 0.106z">
            </path>
            <path
                d="M27.033 22.028c-0.111 0-0.205-0.035-0.281-0.106-0.071-0.076-0.106-0.169-0.106-0.281v-3.375c0-0.116 0.035-0.21 0.106-0.281 0.076-0.071 0.169-0.106 0.281-0.106 0.162 0 0.298 0.078 0.41 0.235l1.57 2.268 1.57-2.268c0.111-0.157 0.248-0.235 0.41-0.235 0.116 0 0.21 0.035 0.281 0.106s0.106 0.164 0.106 0.281v3.375c0 0.111-0.035 0.205-0.106 0.281-0.071 0.071-0.164 0.106-0.281 0.106-0.111 0-0.205-0.035-0.281-0.106-0.071-0.076-0.106-0.169-0.106-0.281v-2.761l0.197 0.061-1.396 1.972c-0.126 0.177-0.263 0.265-0.41 0.265-0.147-0.005-0.281-0.094-0.402-0.265l-1.373-1.972 0.197-0.061v2.761c0 0.111-0.035 0.205-0.106 0.281-0.071 0.071-0.164 0.106-0.281 0.106z">
            </path>
            <path
                d="M57.377 14.474c-0.369 0-0.7-0.091-0.994-0.273-0.293-0.187-0.526-0.437-0.698-0.751-0.167-0.319-0.25-0.678-0.25-1.077s0.091-0.758 0.273-1.077c0.187-0.319 0.437-0.569 0.751-0.751 0.319-0.187 0.675-0.281 1.069-0.281s0.748 0.094 1.062 0.281c0.313 0.182 0.561 0.432 0.743 0.751 0.187 0.319 0.281 0.678 0.281 1.077h-0.296c0 0.399-0.086 0.758-0.258 1.077-0.167 0.314-0.397 0.564-0.69 0.751-0.293 0.182-0.624 0.273-0.994 0.273zM57.529 13.792c0.258 0 0.488-0.061 0.69-0.182 0.202-0.126 0.362-0.296 0.478-0.508 0.116-0.217 0.174-0.46 0.174-0.728 0-0.273-0.058-0.516-0.174-0.728-0.116-0.217-0.276-0.387-0.478-0.508-0.202-0.126-0.432-0.19-0.69-0.19-0.253 0-0.483 0.063-0.69 0.19-0.202 0.121-0.364 0.291-0.485 0.508-0.116 0.212-0.174 0.455-0.174 0.728 0 0.268 0.058 0.511 0.174 0.728 0.121 0.212 0.283 0.382 0.485 0.508 0.207 0.121 0.437 0.182 0.69 0.182zM59.228 14.451c-0.111 0-0.205-0.035-0.281-0.106-0.071-0.076-0.106-0.169-0.106-0.281v-1.16l0.144-0.804 0.63 0.273v1.691c0 0.111-0.038 0.205-0.114 0.281-0.071 0.071-0.162 0.106-0.273 0.106z">
            </path>
            <path
                d="M55.032 14.353c-0.066 0.061-0.159 0.091-0.281 0.091-0.116-0.005-0.207-0.040-0.273-0.106l-1.843-1.98 1.737-1.942c0.066-0.071 0.157-0.111 0.273-0.121 0.121-0.010 0.215 0.015 0.281 0.076 0.076 0.071 0.119 0.152 0.129 0.243 0.010 0.086-0.018 0.164-0.083 0.235l-1.373 1.471 1.456 1.562c0.066 0.066 0.099 0.144 0.099 0.235 0 0.086-0.040 0.164-0.121 0.235zM52.029 14.451c-0.111 0-0.2-0.035-0.265-0.106-0.066-0.076-0.099-0.169-0.099-0.281v-3.383c0-0.116 0.033-0.21 0.099-0.281s0.154-0.106 0.265-0.106c0.116 0 0.21 0.035 0.281 0.106 0.076 0.071 0.114 0.164 0.114 0.281v1.267h0.971v0.713h-0.971v1.403c0 0.111-0.038 0.205-0.114 0.281-0.071 0.071-0.164 0.106-0.281 0.106z">
            </path>
            <path
                d="M48.351 14.474c-0.379 0-0.715-0.088-1.009-0.265-0.288-0.182-0.516-0.43-0.683-0.743-0.167-0.319-0.25-0.683-0.25-1.092 0-0.415 0.088-0.779 0.265-1.092 0.182-0.319 0.43-0.566 0.743-0.743 0.313-0.182 0.675-0.273 1.085-0.273 0.405 0 0.764 0.091 1.077 0.273 0.314 0.177 0.559 0.425 0.736 0.743 0.182 0.313 0.273 0.678 0.273 1.092h-0.448c0 0.41-0.078 0.774-0.235 1.092-0.152 0.313-0.361 0.561-0.629 0.743-0.268 0.177-0.576 0.265-0.925 0.265zM48.488 16.165c-0.359 0-0.695-0.071-1.009-0.212s-0.579-0.349-0.796-0.622c-0.066-0.086-0.091-0.174-0.076-0.265 0.020-0.091 0.071-0.164 0.152-0.22 0.091-0.061 0.185-0.081 0.281-0.061 0.101 0.020 0.182 0.071 0.243 0.152 0.137 0.172 0.308 0.306 0.516 0.402s0.442 0.144 0.705 0.144c0.243 0 0.465-0.058 0.667-0.174 0.207-0.116 0.372-0.288 0.493-0.516s0.182-0.506 0.182-0.834v-1.077l0.25-0.667 0.493 0.159v1.638c0 0.399-0.089 0.761-0.265 1.085-0.177 0.329-0.425 0.589-0.743 0.781-0.313 0.192-0.678 0.288-1.092 0.288zM48.503 13.792c0.263 0 0.496-0.061 0.698-0.182s0.359-0.288 0.47-0.501c0.116-0.212 0.174-0.458 0.174-0.736s-0.058-0.523-0.174-0.736c-0.111-0.217-0.268-0.387-0.47-0.508s-0.435-0.182-0.698-0.182-0.495 0.061-0.698 0.182c-0.202 0.121-0.362 0.291-0.478 0.508-0.116 0.212-0.174 0.458-0.174 0.736s0.058 0.523 0.174 0.736c0.116 0.212 0.276 0.379 0.478 0.501s0.435 0.182 0.698 0.182z">
            </path>
            <path
                d="M43.462 14.474c-0.41 0-0.771-0.088-1.085-0.265-0.313-0.182-0.561-0.43-0.743-0.743-0.177-0.319-0.265-0.683-0.265-1.092 0-0.415 0.089-0.779 0.265-1.092 0.182-0.319 0.43-0.566 0.743-0.743 0.314-0.182 0.675-0.273 1.085-0.273 0.405 0 0.764 0.091 1.077 0.273 0.314 0.177 0.559 0.425 0.736 0.743 0.182 0.313 0.273 0.678 0.273 1.092 0 0.41-0.088 0.774-0.265 1.092-0.177 0.313-0.422 0.561-0.736 0.743-0.313 0.177-0.675 0.265-1.085 0.265zM43.462 13.792c0.263 0 0.496-0.061 0.698-0.182s0.359-0.288 0.47-0.501c0.116-0.212 0.174-0.458 0.174-0.736s-0.058-0.523-0.174-0.736c-0.111-0.217-0.268-0.387-0.47-0.508s-0.435-0.182-0.698-0.182-0.496 0.061-0.698 0.182c-0.202 0.121-0.362 0.291-0.478 0.508-0.116 0.212-0.174 0.458-0.174 0.736s0.058 0.523 0.174 0.736c0.116 0.212 0.276 0.379 0.478 0.501s0.435 0.182 0.698 0.182z">
            </path>
            <path
                d="M38.76 10.303c0.076 0 0.144 0.020 0.205 0.061s0.109 0.104 0.144 0.19l1.562 3.39c0.046 0.101 0.051 0.192 0.015 0.273-0.035 0.076-0.096 0.134-0.182 0.174-0.111 0.051-0.207 0.063-0.288 0.038s-0.149-0.088-0.205-0.19l-1.426-3.239h0.387l-1.471 3.239c-0.045 0.096-0.114 0.159-0.205 0.19-0.086 0.025-0.182 0.013-0.288-0.038-0.096-0.046-0.164-0.106-0.205-0.182-0.035-0.076-0.028-0.164 0.023-0.265l1.57-3.39c0.076-0.167 0.197-0.25 0.364-0.25z">
            </path>
            <path
                d="M34.043 14.474c-0.41 0-0.771-0.088-1.085-0.265-0.313-0.182-0.561-0.43-0.743-0.743-0.177-0.319-0.265-0.683-0.265-1.092 0-0.415 0.088-0.779 0.265-1.092 0.182-0.319 0.43-0.566 0.743-0.743 0.314-0.182 0.675-0.273 1.085-0.273 0.405 0 0.764 0.091 1.077 0.273 0.313 0.177 0.559 0.425 0.736 0.743 0.182 0.313 0.273 0.678 0.273 1.092 0 0.41-0.088 0.774-0.265 1.092-0.177 0.313-0.422 0.561-0.736 0.743-0.314 0.177-0.675 0.265-1.085 0.265zM34.043 13.792c0.263 0 0.496-0.061 0.698-0.182s0.359-0.288 0.47-0.501c0.116-0.212 0.174-0.458 0.174-0.736s-0.058-0.523-0.174-0.736c-0.111-0.217-0.268-0.387-0.47-0.508s-0.435-0.182-0.698-0.182-0.496 0.061-0.698 0.182c-0.202 0.121-0.362 0.291-0.478 0.508-0.116 0.212-0.174 0.458-0.174 0.736s0.058 0.523 0.174 0.736c0.116 0.212 0.276 0.379 0.478 0.501s0.435 0.182 0.698 0.182z">
            </path>
            <path
                d="M29.377 14.52c-0.41 0-0.794-0.076-1.153-0.228-0.354-0.157-0.665-0.372-0.933-0.645-0.263-0.278-0.47-0.602-0.622-0.971-0.147-0.369-0.22-0.769-0.22-1.198 0-0.425 0.073-0.819 0.22-1.183 0.152-0.369 0.359-0.69 0.622-0.963 0.268-0.278 0.579-0.496 0.933-0.652s0.738-0.235 1.153-0.235c0.389 0 0.723 0.051 1.001 0.152 0.283 0.101 0.566 0.268 0.849 0.501 0.040 0.030 0.071 0.063 0.091 0.099 0.025 0.030 0.040 0.063 0.045 0.099 0.010 0.030 0.015 0.068 0.015 0.114 0 0.096-0.035 0.177-0.106 0.243-0.066 0.061-0.147 0.096-0.243 0.106-0.096 0.005-0.19-0.028-0.281-0.099-0.187-0.162-0.382-0.286-0.584-0.372-0.197-0.086-0.46-0.129-0.789-0.129-0.298 0-0.579 0.061-0.842 0.182s-0.496 0.288-0.698 0.501c-0.197 0.212-0.351 0.46-0.463 0.743-0.111 0.278-0.167 0.576-0.167 0.895 0 0.324 0.056 0.627 0.167 0.91 0.111 0.278 0.265 0.523 0.463 0.736 0.202 0.212 0.435 0.379 0.698 0.501 0.263 0.116 0.544 0.174 0.842 0.174 0.258 0 0.501-0.043 0.728-0.129 0.233-0.091 0.455-0.215 0.667-0.372 0.091-0.066 0.179-0.094 0.265-0.083 0.091 0.005 0.167 0.040 0.228 0.106 0.061 0.061 0.091 0.147 0.091 0.258 0 0.051-0.010 0.101-0.030 0.152-0.020 0.046-0.051 0.089-0.091 0.129-0.273 0.217-0.566 0.382-0.88 0.493-0.308 0.111-0.635 0.167-0.978 0.167z">
            </path>
        </symbol>
        <symbol id="icon-icon-logo-large" viewBox="0 0 150 32">
            <path
                d="M42.444 27.974c0.992 0.514 1.827 0.349 2.506-0.496s0.762-1.725 0.248-2.643l-3.911-7.378-2.975 8.094 4.132 2.423zM30.766 25.661h3.883l5.317-13.324c0.22-0.514 0.303-1.019 0.248-1.514s-0.358-0.872-0.909-1.129l-4.572-1.982c-0.514-0.257-1.028-0.257-1.542 0s-0.79 0.642-0.826 1.156l-1.598 16.793zM14.447 25.661h3.814l-1.542-16.793c-0.037-0.551-0.285-0.954-0.744-1.211s-1.001-0.239-1.625 0.055l-4.352 1.872c-0.477 0.184-0.744 0.597-0.799 1.239s0.009 1.22 0.193 1.734l5.055 13.104zM6.638 27.974l4.132-2.423-2.975-8.094-3.911 7.653c-0.514 1.028-0.404 1.863 0.331 2.505s1.542 0.762 2.424 0.358zM21.567 25.661h5.894l1.818-20.041c0.073-0.514-0.064-0.945-0.413-1.294s-0.78-0.523-1.294-0.523h-6.060c-0.588 0-1.028 0.174-1.322 0.523s-0.422 0.78-0.386 1.294l1.763 20.041zM5.426 31.635c-1.52 0-2.804-0.542-3.853-1.627s-1.573-2.387-1.573-3.906c0-0.467 0.083-0.922 0.248-1.367s0.349-0.881 0.55-1.311l5.028-9.737c-0.551-1.493-0.586-2.97-0.106-4.432s1.412-2.494 2.796-3.099l4.572-1.872c0.588-0.22 1.184-0.351 1.79-0.392s1.17 0.099 1.693 0.421c0.259-1.201 0.846-2.187 1.763-2.959s1.975-1.157 3.177-1.157h6.060c1.202 0 2.261 0.358 3.177 1.075s1.504 1.657 1.763 2.821c0.551-0.211 1.122-0.297 1.714-0.255s1.163 0.19 1.714 0.447l4.627 1.872c1.412 0.54 2.369 1.53 2.872 2.968s0.451 2.85-0.155 4.232l5.002 10.012c0.156 0.421 0.328 0.838 0.516 1.25s0.282 0.832 0.282 1.262c0 1.621-0.579 2.985-1.738 4.093s-2.554 1.661-4.184 1.661c-0.422 0-0.82-0.085-1.195-0.254s-0.755-0.332-1.14-0.488l-3.307-1.625h-26.009l-3.129 1.625c-0.467 0.192-0.943 0.364-1.428 0.515s-0.994 0.227-1.526 0.227z">
            </path>
            <path
                d="M148.286 28.153c-0.22 0-0.404-0.073-0.55-0.22-0.147-0.157-0.22-0.351-0.22-0.582v-2.075h-2.216v-0.204c-0.555 0-1.048-0.11-1.478-0.33s-0.765-0.524-1.006-0.912c-0.241-0.388-0.362-0.838-0.362-1.352 0-0.555 0.131-1.053 0.393-1.493 0.273-0.44 0.639-0.786 1.101-1.038 0.471-0.262 1.011-0.393 1.619-0.393h2.72c0.241 0 0.435 0.073 0.582 0.22s0.22 0.341 0.22 0.582v7.011c-0.011 0.231-0.089 0.419-0.236 0.566-0.137 0.147-0.325 0.22-0.566 0.22zM142.706 27.965c-0.167-0.147-0.246-0.309-0.236-0.487s0.073-0.341 0.189-0.487l1.917-2.499h2.091l-2.688 3.348c-0.179 0.231-0.399 0.341-0.661 0.33s-0.466-0.079-0.613-0.204zM145.566 23.956h1.949v-2.908h-1.949c-0.419 0-0.786 0.136-1.101 0.409-0.314 0.262-0.471 0.603-0.471 1.022 0 0.44 0.157 0.796 0.471 1.069s0.681 0.409 1.101 0.409z">
            </path>
            <path
                d="M139.398 28.153c-0.231 0-0.424-0.073-0.582-0.22-0.147-0.157-0.22-0.351-0.22-0.582v-6.995c0-0.241 0.073-0.435 0.22-0.582 0.157-0.147 0.351-0.22 0.582-0.22 0.241 0 0.429 0.073 0.566 0.22s0.204 0.341 0.204 0.582v6.995c0 0.23-0.069 0.424-0.204 0.582-0.137 0.147-0.325 0.22-0.566 0.22zM132.938 28.153c-0.231 0-0.419-0.073-0.566-0.22-0.136-0.157-0.204-0.351-0.204-0.582v-6.995c0-0.241 0.069-0.435 0.204-0.582 0.147-0.147 0.335-0.22 0.566-0.22 0.241 0 0.435 0.073 0.582 0.22s0.22 0.341 0.22 0.582v6.995c0 0.23-0.073 0.424-0.22 0.582-0.147 0.147-0.34 0.22-0.582 0.22zM133.535 24.396v-1.415h5.518v1.415h-5.518z">
            </path>
            <path
                d="M122.073 31.832c-0.231 0-0.424-0.079-0.582-0.236-0.147-0.147-0.221-0.335-0.221-0.566v-7.168c0.010-0.828 0.204-1.572 0.582-2.232s0.891-1.179 1.54-1.556c0.65-0.388 1.383-0.582 2.201-0.582 0.828 0 1.567 0.194 2.216 0.582 0.649 0.377 1.163 0.896 1.541 1.556 0.387 0.66 0.582 1.404 0.582 2.232s-0.178 1.572-0.535 2.232c-0.346 0.65-0.822 1.169-1.43 1.556-0.608 0.377-1.294 0.566-2.059 0.566-0.618 0-1.189-0.126-1.713-0.377-0.513-0.262-0.954-0.613-1.32-1.053v4.244c0 0.231-0.073 0.419-0.22 0.566-0.147 0.157-0.341 0.236-0.582 0.236zM125.594 26.801c0.534 0 1.011-0.126 1.43-0.377 0.419-0.262 0.749-0.613 0.991-1.053 0.251-0.451 0.377-0.954 0.377-1.509 0-0.566-0.125-1.069-0.377-1.509-0.242-0.451-0.572-0.802-0.99-1.053-0.419-0.262-0.896-0.393-1.43-0.393-0.524 0-1.001 0.131-1.43 0.393-0.419 0.252-0.749 0.603-0.99 1.053-0.242 0.44-0.362 0.943-0.362 1.509 0 0.555 0.121 1.058 0.362 1.509 0.241 0.44 0.571 0.791 0.99 1.053 0.43 0.252 0.906 0.377 1.43 0.377z">
            </path>
            <path
                d="M115.707 28.216c-0.87 0-1.645-0.183-2.326-0.55-0.671-0.377-1.2-0.891-1.588-1.541-0.377-0.66-0.566-1.415-0.566-2.264 0-0.859 0.178-1.614 0.534-2.264 0.367-0.66 0.87-1.174 1.509-1.54 0.639-0.377 1.373-0.566 2.201-0.566 0.817 0 1.52 0.183 2.106 0.55 0.587 0.356 1.032 0.854 1.336 1.493 0.314 0.629 0.472 1.357 0.472 2.185 0 0.199-0.069 0.367-0.204 0.503-0.136 0.126-0.309 0.189-0.519 0.189h-6.335v-1.258h6.287l-0.644 0.44c-0.010-0.524-0.115-0.99-0.314-1.399-0.199-0.419-0.482-0.749-0.849-0.99s-0.813-0.362-1.337-0.362c-0.597 0-1.111 0.131-1.54 0.393-0.419 0.262-0.739 0.623-0.959 1.085-0.22 0.451-0.33 0.964-0.33 1.541s0.131 1.090 0.393 1.54c0.261 0.451 0.624 0.807 1.085 1.069s0.99 0.393 1.588 0.393c0.325 0 0.655-0.058 0.99-0.173 0.346-0.126 0.624-0.267 0.833-0.424 0.157-0.115 0.325-0.173 0.503-0.173 0.189-0.010 0.351 0.042 0.487 0.157 0.178 0.157 0.272 0.33 0.282 0.519s-0.073 0.351-0.251 0.487c-0.356 0.283-0.802 0.514-1.336 0.692-0.524 0.178-1.027 0.267-1.509 0.267z">
            </path>
            <path
                d="M108.359 28.169c-0.231 0-0.424-0.073-0.582-0.22-0.147-0.157-0.221-0.351-0.221-0.582v-4.496c0-0.66-0.162-1.148-0.487-1.462-0.325-0.325-0.749-0.487-1.273-0.487-0.544 0-0.996 0.189-1.352 0.566-0.346 0.377-0.519 0.859-0.519 1.446h-1.305c0-0.681 0.147-1.279 0.44-1.792 0.293-0.524 0.702-0.933 1.226-1.226 0.534-0.293 1.142-0.44 1.823-0.44 0.597 0 1.127 0.131 1.588 0.393s0.817 0.65 1.069 1.163c0.262 0.503 0.393 1.116 0.393 1.839v4.496c0 0.231-0.073 0.424-0.22 0.582-0.147 0.147-0.341 0.22-0.582 0.22zM97.874 28.169c-0.231 0-0.424-0.073-0.582-0.22-0.147-0.157-0.22-0.351-0.22-0.582v-6.995c0-0.241 0.073-0.435 0.22-0.582 0.157-0.147 0.351-0.22 0.582-0.22 0.241 0 0.435 0.073 0.582 0.22s0.22 0.341 0.22 0.582v6.995c0 0.231-0.073 0.424-0.22 0.582-0.147 0.147-0.341 0.22-0.582 0.22zM103.124 28.169c-0.231 0-0.424-0.073-0.582-0.22-0.147-0.157-0.221-0.351-0.221-0.582v-4.496c0-0.66-0.162-1.148-0.487-1.462-0.325-0.325-0.749-0.487-1.273-0.487-0.544 0-0.996 0.189-1.352 0.566s-0.534 0.859-0.534 1.446h-0.99c0-0.681 0.136-1.279 0.409-1.792 0.272-0.524 0.65-0.933 1.132-1.226s1.032-0.44 1.65-0.44c0.597 0 1.126 0.131 1.588 0.393s0.817 0.65 1.069 1.163c0.262 0.503 0.393 1.116 0.393 1.839v4.496c0 0.231-0.073 0.424-0.22 0.582-0.147 0.147-0.341 0.22-0.582 0.22z">
            </path>
            <path
                d="M91.687 28.216c-0.838 0-1.588-0.189-2.248-0.566-0.65-0.388-1.163-0.906-1.54-1.556-0.367-0.66-0.55-1.404-0.55-2.232 0-0.849 0.183-1.603 0.55-2.264s0.87-1.174 1.509-1.54c0.639-0.377 1.373-0.566 2.201-0.566 0.618 0 1.184 0.12 1.698 0.362 0.513 0.231 0.975 0.582 1.383 1.053 0.147 0.168 0.199 0.341 0.157 0.519s-0.157 0.335-0.346 0.472c-0.147 0.105-0.309 0.141-0.487 0.11-0.178-0.042-0.341-0.136-0.487-0.283-0.513-0.545-1.153-0.817-1.918-0.817-0.534 0-1.006 0.126-1.415 0.377-0.409 0.241-0.728 0.582-0.959 1.022s-0.346 0.959-0.346 1.556c0 0.566 0.115 1.069 0.346 1.509 0.241 0.44 0.572 0.791 0.99 1.053 0.419 0.252 0.906 0.377 1.462 0.377 0.367 0 0.686-0.042 0.959-0.126 0.282-0.094 0.54-0.236 0.77-0.424 0.168-0.136 0.341-0.21 0.519-0.22 0.178-0.021 0.335 0.026 0.472 0.141 0.178 0.147 0.278 0.314 0.299 0.503 0.021 0.178-0.042 0.341-0.189 0.487-0.754 0.702-1.698 1.053-2.829 1.053z">
            </path>
            <path
                d="M80.847 28.232c-0.723 0-1.373-0.152-1.949-0.456-0.566-0.314-1.017-0.77-1.352-1.368-0.325-0.597-0.487-1.331-0.487-2.201v-3.867c0-0.231 0.073-0.419 0.22-0.566 0.157-0.157 0.351-0.236 0.582-0.236s0.419 0.079 0.566 0.236c0.157 0.147 0.236 0.335 0.236 0.566v3.867c0 0.587 0.11 1.074 0.33 1.462 0.22 0.377 0.519 0.66 0.896 0.849 0.377 0.178 0.802 0.267 1.273 0.267 0.451 0 0.849-0.089 1.195-0.267 0.356-0.178 0.639-0.419 0.849-0.723s0.314-0.645 0.314-1.022h0.99c0 0.65-0.162 1.237-0.487 1.761-0.314 0.524-0.749 0.938-1.305 1.242-0.545 0.304-1.168 0.456-1.871 0.456zM84.32 28.153c-0.231 0-0.424-0.073-0.582-0.22-0.147-0.157-0.221-0.351-0.221-0.582v-7.011c0-0.241 0.073-0.435 0.221-0.582 0.157-0.147 0.351-0.22 0.582-0.22 0.241 0 0.435 0.073 0.582 0.22s0.22 0.341 0.22 0.582v7.011c0 0.231-0.073 0.424-0.22 0.582-0.147 0.147-0.341 0.22-0.582 0.22zM81.177 18.423c-0.534 0-1.016-0.089-1.446-0.267-0.43-0.189-0.77-0.44-1.022-0.755-0.251-0.325-0.377-0.686-0.377-1.085 0-0.22 0.068-0.403 0.204-0.55s0.304-0.22 0.503-0.22c0.21 0 0.377 0.073 0.503 0.22 0.136 0.147 0.204 0.33 0.204 0.55 0 0.262 0.136 0.487 0.409 0.676 0.272 0.178 0.613 0.267 1.022 0.267s0.749-0.089 1.022-0.267c0.272-0.189 0.409-0.414 0.409-0.676 0-0.22 0.068-0.403 0.204-0.55s0.303-0.22 0.503-0.22c0.21 0 0.377 0.073 0.503 0.22 0.136 0.147 0.204 0.33 0.204 0.55 0 0.398-0.126 0.76-0.377 1.085-0.251 0.314-0.592 0.566-1.022 0.755-0.419 0.178-0.901 0.267-1.446 0.267z">
            </path>
            <path
                d="M70.364 28.216c-0.765 0-1.451-0.189-2.059-0.566-0.608-0.388-1.090-0.906-1.446-1.556-0.346-0.66-0.519-1.404-0.519-2.232s0.189-1.572 0.566-2.232c0.388-0.66 0.906-1.179 1.556-1.556 0.66-0.388 1.399-0.582 2.216-0.582s1.551 0.194 2.201 0.582c0.65 0.377 1.163 0.896 1.54 1.556 0.388 0.66 0.582 1.404 0.582 2.232h-0.613c0 0.828-0.178 1.572-0.534 2.232-0.346 0.65-0.823 1.169-1.43 1.556-0.608 0.377-1.294 0.566-2.059 0.566zM70.678 26.801c0.534 0 1.011-0.126 1.43-0.377 0.419-0.262 0.749-0.613 0.99-1.053 0.241-0.451 0.362-0.954 0.362-1.509 0-0.566-0.121-1.069-0.362-1.509-0.241-0.451-0.572-0.802-0.99-1.053-0.419-0.262-0.896-0.393-1.43-0.393-0.524 0-1.001 0.131-1.43 0.393-0.419 0.252-0.754 0.603-1.006 1.053-0.241 0.44-0.362 0.943-0.362 1.509 0 0.555 0.121 1.058 0.362 1.509 0.251 0.44 0.587 0.791 1.006 1.053 0.43 0.252 0.906 0.377 1.43 0.377zM74.199 28.169c-0.231 0-0.424-0.073-0.582-0.22-0.147-0.157-0.22-0.351-0.22-0.582v-2.405l0.299-1.666 1.305 0.566v3.505c0 0.231-0.079 0.424-0.236 0.582-0.147 0.147-0.335 0.22-0.566 0.22z">
            </path>
            <path
                d="M55.105 28.153c-0.23 0-0.425-0.073-0.581-0.22-0.147-0.157-0.221-0.351-0.221-0.582v-6.995c0-0.241 0.074-0.435 0.221-0.582 0.157-0.147 0.351-0.22 0.581-0.22 0.335 0 0.618 0.162 0.849 0.487l3.254 4.7 3.254-4.7c0.23-0.325 0.514-0.487 0.849-0.487 0.241 0 0.434 0.073 0.581 0.22s0.22 0.341 0.22 0.582v6.995c0 0.23-0.073 0.424-0.22 0.582-0.147 0.147-0.34 0.22-0.581 0.22-0.23 0-0.425-0.073-0.582-0.22-0.147-0.157-0.22-0.351-0.22-0.582v-5.722l0.409 0.126-2.892 4.087c-0.262 0.367-0.545 0.55-0.849 0.55-0.303-0.011-0.581-0.194-0.833-0.55l-2.845-4.087 0.408-0.126v5.722c0 0.23-0.074 0.424-0.22 0.582-0.147 0.147-0.34 0.22-0.581 0.22z">
            </path>
            <path
                d="M117.996 12.497c-0.765 0-1.451-0.189-2.059-0.566-0.608-0.388-1.090-0.906-1.447-1.556-0.346-0.66-0.519-1.404-0.519-2.232s0.189-1.572 0.566-2.232c0.388-0.66 0.906-1.179 1.556-1.556 0.66-0.388 1.399-0.582 2.216-0.582s1.551 0.194 2.201 0.582c0.65 0.377 1.163 0.896 1.54 1.556 0.388 0.66 0.582 1.404 0.582 2.232h-0.613c0 0.828-0.178 1.572-0.534 2.232-0.346 0.65-0.823 1.168-1.43 1.556-0.608 0.377-1.294 0.566-2.059 0.566zM118.31 11.082c0.534 0 1.011-0.126 1.43-0.377 0.419-0.262 0.749-0.613 0.99-1.053 0.241-0.451 0.362-0.954 0.362-1.509 0-0.566-0.121-1.069-0.362-1.509-0.241-0.451-0.571-0.802-0.99-1.053-0.419-0.262-0.896-0.393-1.43-0.393-0.524 0-1.001 0.131-1.43 0.393-0.419 0.252-0.754 0.603-1.006 1.053-0.241 0.44-0.362 0.943-0.362 1.509 0 0.555 0.121 1.058 0.362 1.509 0.251 0.44 0.587 0.791 1.006 1.053 0.43 0.252 0.906 0.377 1.43 0.377zM121.831 12.45c-0.231 0-0.424-0.073-0.582-0.22-0.147-0.157-0.22-0.351-0.22-0.582v-2.405l0.299-1.666 1.305 0.566v3.505c0 0.231-0.079 0.424-0.236 0.582-0.147 0.147-0.335 0.22-0.566 0.22z">
            </path>
            <path
                d="M113.135 12.245c-0.136 0.126-0.331 0.189-0.582 0.189-0.241-0.010-0.43-0.084-0.566-0.22l-3.82-4.103 3.6-4.024c0.136-0.147 0.325-0.231 0.566-0.252 0.251-0.021 0.445 0.031 0.582 0.157 0.157 0.147 0.246 0.314 0.267 0.503 0.021 0.178-0.037 0.341-0.173 0.487l-2.845 3.050 3.018 3.238c0.136 0.136 0.204 0.299 0.204 0.487 0 0.178-0.084 0.341-0.251 0.487zM106.91 12.45c-0.231 0-0.414-0.073-0.55-0.22-0.136-0.157-0.204-0.351-0.204-0.582v-7.011c0-0.241 0.068-0.435 0.204-0.582s0.32-0.22 0.55-0.22c0.241 0 0.435 0.073 0.582 0.22 0.157 0.147 0.236 0.341 0.236 0.582v2.625h2.012v1.478h-2.012v2.908c0 0.231-0.079 0.424-0.236 0.582-0.147 0.147-0.341 0.22-0.582 0.22z">
            </path>
            <path
                d="M99.288 12.497c-0.786 0-1.483-0.183-2.091-0.55-0.597-0.377-1.069-0.891-1.415-1.54-0.346-0.66-0.519-1.415-0.519-2.264 0-0.859 0.183-1.614 0.55-2.264 0.377-0.66 0.891-1.174 1.54-1.54 0.65-0.377 1.399-0.566 2.248-0.566 0.838 0 1.582 0.189 2.233 0.566 0.65 0.367 1.158 0.88 1.525 1.54 0.377 0.65 0.566 1.404 0.566 2.264h-0.927c0 0.849-0.162 1.603-0.487 2.264-0.314 0.65-0.749 1.163-1.305 1.54-0.555 0.367-1.195 0.55-1.918 0.55zM99.571 16.002c-0.744 0-1.441-0.147-2.091-0.44s-1.2-0.723-1.65-1.289c-0.136-0.178-0.189-0.362-0.157-0.55 0.042-0.189 0.147-0.341 0.314-0.456 0.189-0.126 0.382-0.168 0.582-0.126 0.21 0.042 0.377 0.147 0.503 0.314 0.283 0.356 0.639 0.634 1.069 0.833s0.916 0.299 1.462 0.299c0.503 0 0.965-0.121 1.383-0.362 0.43-0.241 0.77-0.597 1.022-1.069s0.377-1.048 0.377-1.729v-2.232l0.519-1.383 1.022 0.33v3.395c0 0.828-0.183 1.577-0.55 2.248-0.367 0.681-0.88 1.221-1.54 1.619-0.65 0.398-1.404 0.597-2.264 0.597zM99.603 11.082c0.545 0 1.027-0.126 1.447-0.377s0.744-0.597 0.975-1.037c0.241-0.44 0.362-0.948 0.362-1.525s-0.121-1.085-0.362-1.525c-0.231-0.451-0.555-0.802-0.975-1.053s-0.901-0.377-1.447-0.377-1.027 0.126-1.446 0.377c-0.419 0.252-0.749 0.603-0.99 1.053-0.241 0.44-0.362 0.948-0.362 1.525s0.121 1.085 0.362 1.525c0.241 0.44 0.572 0.786 0.99 1.037s0.901 0.377 1.446 0.377z">
            </path>
            <path
                d="M89.154 12.497c-0.849 0-1.598-0.183-2.248-0.55-0.65-0.377-1.163-0.891-1.54-1.54-0.367-0.66-0.55-1.415-0.55-2.264 0-0.859 0.183-1.614 0.55-2.264 0.377-0.66 0.891-1.174 1.54-1.54 0.65-0.377 1.399-0.566 2.248-0.566 0.838 0 1.582 0.189 2.233 0.566 0.65 0.367 1.158 0.88 1.525 1.54 0.377 0.65 0.566 1.404 0.566 2.264 0 0.849-0.183 1.603-0.55 2.264-0.367 0.65-0.876 1.163-1.525 1.54-0.65 0.367-1.399 0.55-2.248 0.55zM89.154 11.082c0.545 0 1.027-0.126 1.447-0.377s0.744-0.597 0.975-1.037c0.241-0.44 0.362-0.948 0.362-1.525s-0.121-1.085-0.362-1.525c-0.231-0.451-0.555-0.802-0.975-1.053s-0.901-0.377-1.447-0.377-1.027 0.126-1.446 0.377c-0.419 0.252-0.749 0.603-0.99 1.053-0.241 0.44-0.362 0.948-0.362 1.525s0.121 1.085 0.362 1.525c0.241 0.44 0.572 0.786 0.99 1.037s0.901 0.377 1.446 0.377z">
            </path>
            <path
                d="M79.41 3.851c0.157 0 0.299 0.042 0.424 0.126s0.225 0.215 0.299 0.393l3.238 7.027c0.094 0.21 0.105 0.398 0.031 0.566-0.073 0.157-0.199 0.278-0.377 0.362-0.231 0.105-0.43 0.131-0.597 0.079s-0.309-0.183-0.424-0.393l-2.955-6.712h0.802l-3.049 6.712c-0.094 0.199-0.236 0.33-0.424 0.393-0.178 0.052-0.377 0.026-0.597-0.079-0.2-0.094-0.341-0.22-0.424-0.377-0.073-0.157-0.058-0.341 0.047-0.55l3.254-7.027c0.157-0.346 0.409-0.519 0.754-0.519z">
            </path>
            <path
                d="M69.635 12.497c-0.849 0-1.598-0.183-2.248-0.55-0.65-0.377-1.163-0.891-1.54-1.54-0.367-0.66-0.55-1.415-0.55-2.264 0-0.859 0.183-1.614 0.55-2.264 0.377-0.66 0.891-1.174 1.54-1.54 0.65-0.377 1.399-0.566 2.248-0.566 0.838 0 1.582 0.189 2.233 0.566 0.65 0.367 1.158 0.88 1.525 1.54 0.377 0.65 0.566 1.404 0.566 2.264 0 0.849-0.183 1.603-0.55 2.264-0.367 0.65-0.876 1.163-1.525 1.54-0.65 0.367-1.399 0.55-2.248 0.55zM69.635 11.082c0.545 0 1.027-0.126 1.447-0.377s0.744-0.597 0.975-1.037c0.241-0.44 0.362-0.948 0.362-1.525s-0.121-1.085-0.362-1.525c-0.231-0.451-0.555-0.802-0.975-1.053s-0.901-0.377-1.447-0.377-1.027 0.126-1.446 0.377c-0.419 0.252-0.749 0.603-0.99 1.053-0.241 0.44-0.362 0.948-0.362 1.525s0.121 1.085 0.362 1.525c0.241 0.44 0.572 0.786 0.99 1.037s0.901 0.377 1.446 0.377z">
            </path>
            <path
                d="M59.964 12.591c-0.849 0-1.645-0.157-2.389-0.472-0.734-0.325-1.379-0.77-1.934-1.336-0.545-0.576-0.975-1.247-1.289-2.012-0.304-0.765-0.456-1.593-0.456-2.484 0-0.88 0.152-1.698 0.456-2.452 0.314-0.765 0.744-1.43 1.289-1.996 0.555-0.576 1.2-1.027 1.934-1.352s1.53-0.487 2.389-0.487c0.807 0 1.498 0.105 2.075 0.314 0.587 0.21 1.173 0.555 1.761 1.037 0.084 0.063 0.147 0.131 0.188 0.204 0.052 0.063 0.084 0.131 0.094 0.204 0.021 0.063 0.031 0.141 0.031 0.236 0 0.199-0.073 0.367-0.22 0.503-0.136 0.126-0.304 0.199-0.503 0.22-0.199 0.010-0.393-0.058-0.581-0.204-0.388-0.335-0.791-0.592-1.211-0.77-0.409-0.178-0.953-0.267-1.635-0.267-0.618 0-1.2 0.126-1.745 0.377s-1.027 0.597-1.447 1.037c-0.408 0.44-0.728 0.954-0.959 1.541-0.23 0.576-0.346 1.195-0.346 1.855 0 0.671 0.115 1.299 0.346 1.886 0.231 0.576 0.55 1.085 0.959 1.525 0.419 0.44 0.901 0.786 1.447 1.037 0.544 0.241 1.127 0.362 1.745 0.362 0.535 0 1.038-0.089 1.509-0.267 0.482-0.189 0.944-0.445 1.383-0.77 0.188-0.136 0.372-0.194 0.55-0.173 0.188 0.010 0.346 0.084 0.471 0.22 0.126 0.126 0.189 0.304 0.189 0.534 0 0.105-0.021 0.21-0.063 0.314-0.042 0.094-0.105 0.183-0.188 0.267-0.566 0.451-1.174 0.791-1.824 1.022-0.639 0.231-1.316 0.346-2.028 0.346z">
            </path>
        </symbol>
        <symbol id="icon-keyboard_arrow_down" viewBox="0 0 32 32">
            <path
                d="M16 20.269c-0.149 0-0.29-0.027-0.422-0.083s-0.259-0.143-0.381-0.265l-6.592-6.592c-0.227-0.227-0.334-0.497-0.323-0.812s0.13-0.586 0.357-0.812c0.227-0.227 0.497-0.34 0.812-0.34s0.586 0.113 0.812 0.34l5.738 5.771 5.771-5.771c0.227-0.227 0.492-0.334 0.796-0.323s0.569 0.13 0.796 0.357c0.227 0.227 0.34 0.497 0.34 0.812s-0.113 0.586-0.34 0.812l-6.559 6.559c-0.122 0.122-0.249 0.21-0.381 0.265s-0.273 0.083-0.422 0.083z">
            </path>
        </symbol>
        <symbol id="icon-menu" viewBox="0 0 32 32">
            <path
                d="M4.936 24.295c-0.321 0-0.59-0.11-0.808-0.329s-0.327-0.493-0.327-0.82c0-0.322 0.109-0.591 0.327-0.807s0.488-0.323 0.808-0.323h22.127c0.321 0 0.591 0.11 0.812 0.329s0.331 0.49 0.331 0.812c0 0.327-0.11 0.599-0.331 0.814s-0.492 0.323-0.812 0.323h-22.127zM4.936 17.136c-0.321 0-0.59-0.11-0.808-0.329s-0.327-0.49-0.327-0.812c0-0.322 0.109-0.591 0.327-0.806s0.488-0.323 0.808-0.323h22.127c0.321 0 0.591 0.11 0.812 0.329s0.331 0.49 0.331 0.812c0 0.322-0.11 0.591-0.331 0.806s-0.492 0.323-0.812 0.323h-22.127zM4.936 9.984c-0.321 0-0.59-0.11-0.808-0.329s-0.327-0.493-0.327-0.82c0-0.322 0.109-0.591 0.327-0.806s0.488-0.323 0.808-0.323h22.127c0.321 0 0.591 0.11 0.812 0.329s0.331 0.49 0.331 0.812c0 0.328-0.11 0.599-0.331 0.815s-0.492 0.323-0.812 0.323h-22.127z">
            </path>
        </symbol>
        <symbol id="icon-close" viewBox="0 0 32 32">
            <path stroke-linejoin="miter" stroke-linecap="butt" stroke-miterlimit="4" stroke-width="1.3333"
                d="M23.466 7.9c0.219 0 0.355 0.065 0.462 0.172s0.172 0.242 0.172 0.461c0 0.219-0.065 0.355-0.172 0.462l-7.005 7.005 7.005 7.004c0.107 0.107 0.172 0.243 0.172 0.462s-0.065 0.355-0.172 0.462c-0.107 0.107-0.243 0.172-0.462 0.172s-0.355-0.065-0.462-0.172l-7.004-7.005-7.005 7.005c-0.107 0.107-0.243 0.172-0.462 0.172s-0.354-0.065-0.461-0.172c-0.107-0.107-0.172-0.243-0.172-0.462s0.065-0.355 0.172-0.462l7.004-7.004-7.004-7.005c-0.107-0.107-0.172-0.243-0.172-0.462s0.065-0.354 0.172-0.461 0.242-0.172 0.461-0.172c0.219 0 0.355 0.065 0.462 0.172l7.005 7.004 7.004-7.004c0.107-0.107 0.243-0.172 0.462-0.172z">
            </path>
        </symbol>
        <symbol id="icon-arrow-left" viewBox="0 0 32 32">
            <path stroke-linejoin="miter" stroke-linecap="butt" stroke-miterlimit="4" stroke-width="1.3333"
                d="M16.010 6.249c0.114 0 0.212 0.035 0.322 0.145 0.11 0.115 0.145 0.217 0.145 0.332-0 0.116-0.035 0.214-0.145 0.324l-8.482 8.482h17.88c0.162 0 0.262 0.047 0.348 0.132 0.083 0.082 0.129 0.177 0.129 0.337s-0.046 0.255-0.129 0.337c-0.085 0.084-0.186 0.131-0.348 0.132h-17.88l8.474 8.473c0.11 0.11 0.147 0.212 0.148 0.335v0.001c0.001 0.089-0.019 0.167-0.074 0.246l-0.069 0.082c-0.107 0.108-0.204 0.143-0.323 0.142-0.126-0.001-0.23-0.041-0.341-0.151l-9.264-9.264c-0.071-0.072-0.105-0.128-0.121-0.167v-0.001c-0.020-0.048-0.031-0.102-0.031-0.165s0.012-0.116 0.031-0.163v-0.001c0.016-0.038 0.050-0.095 0.121-0.167l9.267-9.267c0.121-0.116 0.227-0.152 0.342-0.152z">
            </path>
        </symbol>
        <symbol id="icon-arrow-right1" viewBox="0 0 32 32">
            <path stroke-linejoin="miter" stroke-linecap="butt" stroke-miterlimit="4" stroke-width="1.3333"
                d="M15.993 6.253c0.095 0.001 0.177 0.023 0.259 0.081l0.082 0.070 9.264 9.264c0.071 0.072 0.105 0.128 0.121 0.167v0.001c0.020 0.048 0.031 0.102 0.031 0.165s-0.012 0.116-0.031 0.163v0.001c-0.016 0.038-0.050 0.094-0.121 0.167l-9.272 9.264c-0.122 0.12-0.227 0.155-0.337 0.155-0.108-0-0.204-0.033-0.315-0.147l-0.007-0.007-0.069-0.081c-0.056-0.079-0.075-0.157-0.075-0.243s0.020-0.163 0.075-0.242l0.069-0.081 8.482-8.482h-17.88c-0.163-0-0.259-0.047-0.34-0.128h-0.001c-0.081-0.081-0.128-0.179-0.128-0.341s0.046-0.26 0.128-0.341h0.001c0.081-0.081 0.177-0.127 0.34-0.128h17.88l-8.474-8.474c-0.082-0.082-0.124-0.16-0.141-0.246l-0.008-0.090c-0.001-0.12 0.034-0.218 0.141-0.326l0.001-0.001c0.107-0.107 0.205-0.143 0.324-0.142z">
            </path>
        </symbol>
        <symbol id="icon-arrow-outward" viewBox="0 0 32 32">
            <path
                d="M21.72 10.401l-12.794 12.802c-0.232 0.226-0.498 0.34-0.8 0.34s-0.565-0.116-0.792-0.348c-0.232-0.232-0.348-0.499-0.348-0.8s0.116-0.568 0.348-0.8l12.794-12.794h-11.265c-0.326 0-0.598-0.11-0.816-0.329s-0.327-0.49-0.327-0.812c0-0.322 0.109-0.591 0.327-0.806s0.49-0.323 0.816-0.323h14c0.321 0 0.59 0.109 0.808 0.328s0.327 0.488 0.327 0.808v14c0 0.321-0.11 0.59-0.329 0.808s-0.49 0.328-0.812 0.328c-0.328 0-0.599-0.109-0.815-0.328s-0.323-0.487-0.323-0.808v-11.265z">
            </path>
        </symbol>
        <symbol id="icon-youtube" viewBox="0 0 32 32">
            <path
                d="M28.791 9.604c-0.152-0.563-0.449-1.077-0.861-1.49s-0.925-0.711-1.489-0.864c-2.088-0.573-10.441-0.583-10.441-0.583s-8.352-0.009-10.441 0.539c-0.563 0.16-1.075 0.462-1.487 0.878s-0.711 0.929-0.867 1.493c-0.551 2.088-0.556 6.419-0.556 6.419s-0.005 4.352 0.541 6.419c0.307 1.143 1.207 2.045 2.351 2.353 2.109 0.573 10.44 0.583 10.44 0.583s8.353 0.009 10.441-0.537c0.563-0.153 1.077-0.45 1.49-0.862s0.712-0.925 0.866-1.488c0.552-2.087 0.556-6.416 0.556-6.416s0.027-4.353-0.543-6.441zM13.328 20.007l0.007-8 6.943 4.007-6.949 3.993z">
            </path>
        </symbol>
        <symbol id="icon-instagram" viewBox="0 0 32 32">
            <path
                d="M15.998 6.161c3.206 0 3.585 0.014 4.846 0.071 1.172 0.052 1.804 0.248 2.226 0.412 0.558 0.216 0.961 0.478 1.378 0.895 0.422 0.422 0.679 0.82 0.9 1.378 0.164 0.422 0.361 1.059 0.412 2.226 0.056 1.266 0.071 1.645 0.071 4.847s-0.014 3.585-0.071 4.847c-0.052 1.172-0.248 1.804-0.412 2.227-0.216 0.558-0.478 0.961-0.895 1.377-0.422 0.422-0.82 0.679-1.378 0.9-0.422 0.164-1.060 0.361-2.226 0.412-1.266 0.056-1.645 0.071-4.847 0.071s-3.585-0.014-4.847-0.071c-1.172-0.052-1.804-0.248-2.226-0.412-0.558-0.216-0.961-0.478-1.378-0.895-0.422-0.422-0.679-0.82-0.9-1.378-0.164-0.422-0.361-1.060-0.412-2.226-0.056-1.266-0.071-1.645-0.071-4.847s0.014-3.585 0.071-4.847c0.052-1.172 0.248-1.804 0.412-2.226 0.216-0.558 0.478-0.961 0.895-1.378 0.422-0.422 0.82-0.679 1.378-0.9 0.422-0.164 1.059-0.361 2.226-0.412 1.261-0.056 1.641-0.071 4.847-0.071h0.001zM15.998 4.001c-3.258 0-3.665 0.014-4.945 0.071-1.275 0.056-2.151 0.262-2.91 0.558-0.792 0.309-1.462 0.717-2.127 1.387-0.67 0.666-1.078 1.336-1.387 2.123-0.295 0.764-0.502 1.636-0.558 2.91-0.056 1.285-0.071 1.692-0.071 4.949s0.014 3.665 0.071 4.945c0.056 1.275 0.262 2.151 0.558 2.91 0.31 0.792 0.717 1.462 1.387 2.127 0.665 0.665 1.336 1.078 2.123 1.383 0.764 0.295 1.636 0.502 2.91 0.558 1.279 0.056 1.687 0.071 4.945 0.071s3.666-0.014 4.945-0.071c1.275-0.056 2.151-0.262 2.91-0.558 0.787-0.305 1.458-0.717 2.123-1.383s1.078-1.336 1.383-2.123c0.295-0.764 0.502-1.635 0.558-2.91 0.056-1.279 0.071-1.687 0.071-4.945s-0.014-3.665-0.071-4.945c-0.056-1.275-0.262-2.151-0.558-2.91-0.295-0.797-0.703-1.467-1.373-2.133-0.665-0.665-1.336-1.078-2.123-1.383-0.764-0.295-1.635-0.502-2.91-0.558-1.284-0.061-1.692-0.075-4.949-0.075l-0.001 0.001z">
            </path>
            <path
                d="M15.998 9.836c-3.402 0-6.163 2.76-6.163 6.163s2.76 6.163 6.163 6.163c3.403 0 6.163-2.76 6.163-6.163s-2.76-6.163-6.163-6.163zM15.998 19.997c-2.208 0-3.998-1.79-3.998-3.998s1.79-3.998 3.998-3.998c2.208 0 3.998 1.79 3.998 3.998s-1.79 3.998-3.998 3.998z">
            </path>
            <path
                d="M23.843 9.592c0 0.795-0.644 1.439-1.439 1.439s-1.439-0.644-1.439-1.439 0.644-1.439 1.439-1.439c0.795 0 1.439 0.644 1.439 1.439z">
            </path>
        </symbol>
        <symbol id="icon-facebook" viewBox="0 0 32 32">
            <path
                d="M29.333 16.405c0-7.409-5.969-13.415-13.333-13.415s-13.333 6.006-13.333 13.415c0 6.696 4.876 12.245 11.25 13.252v-9.374h-3.385v-3.878h3.385v-2.955c0-3.362 1.991-5.219 5.036-5.219 1.459 0 2.985 0.262 2.985 0.262v3.301h-1.681c-1.656 0-2.173 1.034-2.173 2.095v2.516h3.698l-0.591 3.878h-3.107v9.374c6.374-1.006 11.25-6.556 11.25-13.252z">
            </path>
        </symbol>
    </defs>
</svg>